STARTFONT 2.1
COMMENT $XConsortium: luBS18.bdf,v 1.7 94/04/02 15:59:36 gildea Exp $
COMMENT  (c) Copyright Bigelow & Holmes 1986, 1985. Lucida is a registered
COMMENT  trademark of Bigelow & Holmes. See LEGAL NOTICE file for terms 
COMMENT  of the license. 
COMMENT GRID 0018 0018 0200 0200
FONT -RFX-Serene-Bold-R-Normal-Sans-18-180-75-75-P-120-iso10646-0400
SIZE 18 72 72
FONTBOUNDINGBOX 26 19 -1 -3
STARTPROPERTIES 24
FONTNAME_REGISTRY ""
FOUNDRY "RFX"
FAMILY_NAME "Serene"
WEIGHT_NAME "Bold"
SLANT "R"
SETWIDTH_NAME "Normal"
ADD_STYLE_NAME "Sans"
PIXEL_SIZE 18
POINT_SIZE 180
RESOLUTION_X 75
RESOLUTION_Y 75
SPACING "P"
AVERAGE_WIDTH 120
CHARSET_REGISTRY "iso10646"
CHARSET_ENCODING "0400"
FONT_ASCENT 16
FONT_DESCENT 3
DEFAULT_CHAR 32
COPYRIGHT "Copyright Bigelow & Holmes 1986, 1985."
FACE_NAME "Lucida Sans Bold"
COPYRIGHT2 "Cyrillic glyphs copyright 2000 Dmitry Yu. Bolkhovityanov, bolkhov@inp.nsk.su"
SOURCEDATE "Mon Jul 24 19:37:40 2000"
PKGVERSION "1.1"
ASSEMBLER "cvtbdf.pl (Linux)"
ENDPROPERTIES
CHARS 305
STARTCHAR space
ENCODING 32
SWIDTH 343 0
DWIDTH 5 0
BBX 0 0 0 0
BITMAP
ENDCHAR
STARTCHAR exclam
ENCODING 33
SWIDTH 265 0
DWIDTH 5 0
BBX 3 13 1 0
BITMAP
E0
E0
E0
E0
E0
60
40
40
00
00
E0
E0
E0
ENDCHAR
STARTCHAR quotedbl
ENCODING 34
SWIDTH 530 0
DWIDTH 10 0
BBX 8 5 1 9
BITMAP
E7
E7
C6
C6
84
ENDCHAR
STARTCHAR numbersign
ENCODING 35
SWIDTH 687 0
DWIDTH 13 0
BBX 10 13 2 0
BITMAP
1980
1980
1980
7FC0
7FC0
3300
3300
FF80
FF80
6600
6600
6600
6600
ENDCHAR
STARTCHAR dollar
ENCODING 36
SWIDTH 687 0
DWIDTH 13 0
BBX 9 17 2 -2
BITMAP
0C00
0C00
3F00
7F80
E580
E400
F400
7C00
3E00
1F00
1780
1380
D380
FF00
7E00
1800
1800
ENDCHAR
STARTCHAR percent
ENCODING 37
SWIDTH 898 0
DWIDTH 17 0
BBX 16 13 1 0
BITMAP
3806
7C0C
EE18
C630
EE60
7CC0
399C
033E
0677
0C63
1877
303E
601C
ENDCHAR
STARTCHAR ampersand
ENCODING 38
SWIDTH 792 0
DWIDTH 15 0
BBX 13 13 1 0
BITMAP
0F00
1F80
39C0
39C0
1D80
1F18
7E18
E738
E3B0
E3E0
F1E0
7FF8
1F78
ENDCHAR
STARTCHAR quotesingle
ENCODING 39
SWIDTH 265 0
DWIDTH 5 0
BBX 3 5 1 9
BITMAP
E0
E0
C0
C0
80
ENDCHAR
STARTCHAR parenleft
ENCODING 40
SWIDTH 386 0
DWIDTH 7 0
BBX 5 16 2 -2
BITMAP
18
38
30
70
60
E0
E0
E0
E0
E0
E0
60
70
30
38
18
ENDCHAR
STARTCHAR parenright
ENCODING 41
SWIDTH 386 0
DWIDTH 7 0
BBX 5 16 0 -2
BITMAP
C0
E0
60
70
30
38
38
38
38
38
38
30
70
60
E0
C0
ENDCHAR
STARTCHAR asterisk
ENCODING 42
SWIDTH 464 0
DWIDTH 9 0
BBX 8 7 1 6
BITMAP
18
18
DB
E7
18
66
66
ENDCHAR
STARTCHAR plus
ENCODING 43
SWIDTH 687 0
DWIDTH 13 0
BBX 10 10 2 1
BITMAP
0C00
0C00
0C00
0C00
FFC0
FFC0
0C00
0C00
0C00
0C00
ENDCHAR
STARTCHAR comma
ENCODING 44
SWIDTH 343 0
DWIDTH 5 0
BBX 3 5 1 -2
BITMAP
E0
E0
E0
60
C0
ENDCHAR
STARTCHAR minus
ENCODING 45
SWIDTH 687 0
DWIDTH 13 0
BBX 10 2 2 5
BITMAP
FFC0
FFC0
ENDCHAR
STARTCHAR period
ENCODING 46
SWIDTH 343 0
DWIDTH 5 0
BBX 3 3 1 0
BITMAP
E0
E0
E0
ENDCHAR
STARTCHAR slash
ENCODING 47
SWIDTH 596 0
DWIDTH 11 0
BBX 11 16 0 -2
BITMAP
00E0
00E0
01C0
01C0
0380
0700
0700
0E00
0E00
1C00
1C00
3800
7000
7000
E000
E000
ENDCHAR
STARTCHAR zero
ENCODING 48
SWIDTH 687 0
DWIDTH 13 0
BBX 11 13 1 0
BITMAP
1F00
7FC0
71C0
E0E0
E0E0
E0E0
E0E0
E0E0
E0E0
E0E0
71C0
7FC0
1F00
ENDCHAR
STARTCHAR one
ENCODING 49
SWIDTH 687 0
DWIDTH 13 0
BBX 5 13 3 0
BITMAP
18
F8
F8
38
38
38
38
38
38
38
38
38
38
ENDCHAR
STARTCHAR two
ENCODING 50
SWIDTH 687 0
DWIDTH 13 0
BBX 9 13 2 0
BITMAP
7E00
FF00
C380
0380
0380
0700
1E00
3C00
7000
E000
FF80
FF80
FF80
ENDCHAR
STARTCHAR three
ENCODING 51
SWIDTH 687 0
DWIDTH 13 0
BBX 9 13 2 0
BITMAP
7E00
FF00
C380
0380
0700
3C00
3E00
0700
0380
0380
C780
FF00
7C00
ENDCHAR
STARTCHAR four
ENCODING 52
SWIDTH 687 0
DWIDTH 13 0
BBX 11 13 1 0
BITMAP
0380
0780
0F80
1B80
3380
6380
C380
FFE0
FFE0
0380
0380
0380
0380
ENDCHAR
STARTCHAR five
ENCODING 53
SWIDTH 687 0
DWIDTH 13 0
BBX 9 13 2 0
BITMAP
FF80
FF80
FF80
C000
C000
FC00
FF00
0F80
0380
0380
C380
FF00
7C00
ENDCHAR
STARTCHAR six
ENCODING 54
SWIDTH 687 0
DWIDTH 13 0
BBX 10 13 2 0
BITMAP
1F00
7F80
6180
E000
EF00
FF80
F3C0
E1C0
E1C0
E1C0
71C0
7F80
1F00
ENDCHAR
STARTCHAR seven
ENCODING 55
SWIDTH 687 0
DWIDTH 13 0
BBX 10 13 2 0
BITMAP
FFC0
FFC0
FFC0
01C0
0380
0700
0E00
1C00
3800
3800
7000
7000
7000
ENDCHAR
STARTCHAR eight
ENCODING 56
SWIDTH 687 0
DWIDTH 13 0
BBX 10 13 2 0
BITMAP
3F00
7F80
E1C0
E1C0
F180
7E00
3F00
6F80
E3C0
E1C0
E1C0
7F80
3F00
ENDCHAR
STARTCHAR nine
ENCODING 57
SWIDTH 687 0
DWIDTH 13 0
BBX 10 13 2 0
BITMAP
3E00
7F80
E380
E1C0
E1C0
E1C0
F3C0
7FC0
3DC0
01C0
6180
7F80
3E00
ENDCHAR
STARTCHAR colon
ENCODING 58
SWIDTH 343 0
DWIDTH 5 0
BBX 3 10 1 0
BITMAP
E0
E0
E0
00
00
00
00
E0
E0
E0
ENDCHAR
STARTCHAR semicolon
ENCODING 59
SWIDTH 343 0
DWIDTH 5 0
BBX 3 12 1 -2
BITMAP
E0
E0
E0
00
00
00
00
E0
E0
E0
60
C0
ENDCHAR
STARTCHAR less
ENCODING 60
SWIDTH 687 0
DWIDTH 13 0
BBX 10 10 1 1
BITMAP
00C0
03C0
0F00
3C00
F000
F000
3C00
0F00
03C0
00C0
ENDCHAR
STARTCHAR equal
ENCODING 61
SWIDTH 687 0
DWIDTH 13 0
BBX 10 6 2 3
BITMAP
FFC0
FFC0
0000
0000
FFC0
FFC0
ENDCHAR
STARTCHAR greater
ENCODING 62
SWIDTH 687 0
DWIDTH 13 0
BBX 10 10 2 1
BITMAP
C000
F000
3C00
0F00
03C0
03C0
0F00
3C00
F000
C000
ENDCHAR
STARTCHAR question
ENCODING 63
SWIDTH 572 0
DWIDTH 11 0
BBX 9 13 1 0
BITMAP
7E00
FF00
C380
0380
0700
1E00
3800
3000
0000
0000
3800
3800
3800
ENDCHAR
STARTCHAR at
ENCODING 64
SWIDTH 833 0
DWIDTH 16 0
BBX 14 13 1 0
BITMAP
0FE0
3FF8
7018
67CC
CCCC
D8CC
D98C
DB8C
DD98
C9F0
6000
7FC0
1F80
ENDCHAR
STARTCHAR A
ENCODING 65
SWIDTH 773 0
DWIDTH 14 0
BBX 13 13 1 0
BITMAP
0700
0700
0F80
0F80
19C0
19C0
30E0
3FE0
7FF0
7070
6070
E038
E038
ENDCHAR
STARTCHAR B
ENCODING 66
SWIDTH 669 0
DWIDTH 13 0
BBX 10 13 2 0
BITMAP
FF00
FF80
E380
E380
E300
FE00
FF00
E380
E1C0
E1C0
E3C0
FF80
FE00
ENDCHAR
STARTCHAR C
ENCODING 67
SWIDTH 726 0
DWIDTH 14 0
BBX 12 13 1 0
BITMAP
0FE0
3FF0
7830
7000
E000
E000
E000
E000
F000
7000
7C30
3FF0
0FC0
ENDCHAR
STARTCHAR D
ENCODING 68
SWIDTH 819 0
DWIDTH 15 0
BBX 12 13 2 0
BITMAP
FF00
FFC0
E1E0
E0E0
E070
E070
E070
E070
E070
E0E0
E1E0
FFC0
FF00
ENDCHAR
STARTCHAR E
ENCODING 69
SWIDTH 645 0
DWIDTH 12 0
BBX 9 13 2 0
BITMAP
FF80
FF80
E000
E000
E000
FF00
FF00
E000
E000
E000
E000
FF80
FF80
ENDCHAR
STARTCHAR F
ENCODING 70
SWIDTH 602 0
DWIDTH 11 0
BBX 9 13 2 0
BITMAP
FF80
FF80
E000
E000
E000
FF00
FF00
E000
E000
E000
E000
E000
E000
ENDCHAR
STARTCHAR G
ENCODING 71
SWIDTH 759 0
DWIDTH 14 0
BBX 12 13 1 0
BITMAP
0FE0
3FF0
7830
7000
E000
E000
E000
E070
F070
7070
7C70
3FF0
0FF0
ENDCHAR
STARTCHAR H
ENCODING 72
SWIDTH 813 0
DWIDTH 15 0
BBX 11 13 2 0
BITMAP
E0E0
E0E0
E0E0
E0E0
E0E0
FFE0
FFE0
E0E0
E0E0
E0E0
E0E0
E0E0
E0E0
ENDCHAR
STARTCHAR I
ENCODING 73
SWIDTH 361 0
DWIDTH 7 0
BBX 3 13 2 0
BITMAP
E0
E0
E0
E0
E0
E0
E0
E0
E0
E0
E0
E0
E0
ENDCHAR
STARTCHAR J
ENCODING 74
SWIDTH 501 0
DWIDTH 9 0
BBX 7 15 0 -2
BITMAP
0E
0E
0E
0E
0E
0E
0E
0E
0E
0E
0E
0E
1C
FC
F0
ENDCHAR
STARTCHAR K
ENCODING 75
SWIDTH 753 0
DWIDTH 14 0
BBX 11 13 2 0
BITMAP
E0C0
E1C0
E380
E700
EE00
F800
F800
FC00
EF00
E780
E3C0
E1E0
E0E0
ENDCHAR
STARTCHAR L
ENCODING 76
SWIDTH 620 0
DWIDTH 11 0
BBX 9 13 2 0
BITMAP
E000
E000
E000
E000
E000
E000
E000
E000
E000
E000
E000
FF80
FF80
ENDCHAR
STARTCHAR M
ENCODING 77
SWIDTH 940 0
DWIDTH 18 0
BBX 14 13 2 0
BITMAP
E01C
F03C
F03C
F87C
F87C
DCDC
DCDC
DC9C
CF9C
CF9C
C71C
C71C
C01C
ENDCHAR
STARTCHAR N
ENCODING 78
SWIDTH 783 0
DWIDTH 14 0
BBX 10 13 2 0
BITMAP
E0C0
E0C0
F0C0
F8C0
F8C0
DCC0
CEC0
CEC0
C7C0
C3C0
C3C0
C1C0
C0C0
ENDCHAR
STARTCHAR O
ENCODING 79
SWIDTH 855 0
DWIDTH 16 0
BBX 14 13 1 0
BITMAP
0FC0
3FF0
7878
7038
E01C
E01C
E01C
E01C
E01C
7038
7878
3FF0
0FC0
ENDCHAR
STARTCHAR P
ENCODING 80
SWIDTH 657 0
DWIDTH 13 0
BBX 10 13 2 0
BITMAP
FF00
FF80
E3C0
E1C0
E1C0
E380
FF80
FE00
E000
E000
E000
E000
E000
ENDCHAR
STARTCHAR Q
ENCODING 81
SWIDTH 855 0
DWIDTH 16 0
BBX 15 15 1 -2
BITMAP
0FC0
3FF0
7878
7038
E01C
E01C
E01C
E01C
E01C
7038
7878
3FF0
0FC0
00FE
003E
ENDCHAR
STARTCHAR R
ENCODING 82
SWIDTH 734 0
DWIDTH 13 0
BBX 10 13 2 0
BITMAP
FF00
FF80
E3C0
E1C0
E1C0
E380
FE00
FF00
E700
E380
E3C0
E1C0
E1C0
ENDCHAR
STARTCHAR S
ENCODING 83
SWIDTH 594 0
DWIDTH 11 0
BBX 9 13 1 0
BITMAP
3F00
7F80
E180
E000
F800
FE00
7F00
1F80
0780
0380
C380
FF00
7E00
ENDCHAR
STARTCHAR T
ENCODING 84
SWIDTH 735 0
DWIDTH 14 0
BBX 13 13 1 0
BITMAP
FFF8
FFF8
0700
0700
0700
0700
0700
0700
0700
0700
0700
0700
0700
ENDCHAR
STARTCHAR U
ENCODING 85
SWIDTH 783 0
DWIDTH 15 0
BBX 11 13 2 0
BITMAP
E0E0
E0E0
E0E0
E0E0
E0E0
E0E0
E0E0
E0E0
E0E0
E0E0
71C0
7FC0
1F00
ENDCHAR
STARTCHAR V
ENCODING 86
SWIDTH 735 0
DWIDTH 14 0
BBX 13 13 1 0
BITMAP
E038
E038
7030
7070
7060
3860
38E0
1CC0
1CC0
0F80
0F80
0700
0700
ENDCHAR
STARTCHAR W
ENCODING 87
SWIDTH 940 0
DWIDTH 18 0
BBX 16 13 1 0
BITMAP
E007
E187
E187
E187
E1C7
73C6
73C6
73EE
366C
3E7C
3E7C
1C38
1C38
ENDCHAR
STARTCHAR X
ENCODING 88
SWIDTH 699 0
DWIDTH 13 0
BBX 11 13 1 0
BITMAP
E060
F0E0
71C0
7980
3B80
1F00
1E00
1F00
3F80
7380
63C0
E1E0
C0E0
ENDCHAR
STARTCHAR Y
ENCODING 89
SWIDTH 738 0
DWIDTH 13 0
BBX 11 13 1 0
BITMAP
E0E0
E0E0
70C0
71C0
3980
3980
1F00
0E00
0E00
0E00
0E00
0E00
0E00
ENDCHAR
STARTCHAR Z
ENCODING 90
SWIDTH 675 0
DWIDTH 12 0
BBX 10 13 1 0
BITMAP
FFC0
FFC0
03C0
0780
0F00
0F00
1E00
3C00
3C00
7800
F000
FFC0
FFC0
ENDCHAR
STARTCHAR bracketleft
ENCODING 91
SWIDTH 386 0
DWIDTH 7 0
BBX 5 16 2 -2
BITMAP
F8
F8
E0
E0
E0
E0
E0
E0
E0
E0
E0
E0
E0
E0
F8
F8
ENDCHAR
STARTCHAR backslash
ENCODING 92
SWIDTH 596 0
DWIDTH 11 0
BBX 11 16 0 -2
BITMAP
E000
E000
7000
7000
3800
1C00
1C00
0E00
0E00
0700
0700
0380
01C0
01C0
00E0
00E0
ENDCHAR
STARTCHAR bracketright
ENCODING 93
SWIDTH 386 0
DWIDTH 7 0
BBX 5 16 0 -2
BITMAP
F8
F8
38
38
38
38
38
38
38
38
38
38
38
38
F8
F8
ENDCHAR
STARTCHAR asciicircum
ENCODING 94
SWIDTH 687 0
DWIDTH 13 0
BBX 9 10 2 2
BITMAP
0800
1C00
1C00
3600
3600
6300
6300
C180
C180
C180
ENDCHAR
STARTCHAR underscore
ENCODING 95
SWIDTH 500 0
DWIDTH 14 0
BBX 12 2 1 -2
BITMAP
FFF0
FFF0
ENDCHAR
STARTCHAR grave
ENCODING 96
SWIDTH 675 0
DWIDTH 13 0
BBX 5 2 4 11
BITMAP
F0
38
ENDCHAR
STARTCHAR a
ENCODING 97
SWIDTH 623 0
DWIDTH 12 0
BBX 10 10 1 0
BITMAP
3E00
7F00
6380
0380
1F80
7F80
E380
E380
FFC0
79C0
ENDCHAR
STARTCHAR b
ENCODING 98
SWIDTH 696 0
DWIDTH 13 0
BBX 10 14 2 0
BITMAP
E000
E000
E000
E000
EF00
FF80
F3C0
E1C0
E1C0
E1C0
E1C0
E380
FF80
DE00
ENDCHAR
STARTCHAR c
ENCODING 99
SWIDTH 545 0
DWIDTH 11 0
BBX 9 10 1 0
BITMAP
1F00
7F80
7180
E000
E000
E000
E000
F180
7F80
1E00
ENDCHAR
STARTCHAR d
ENCODING 100
SWIDTH 696 0
DWIDTH 13 0
BBX 10 14 1 0
BITMAP
01C0
01C0
01C0
01C0
1DC0
7FC0
71C0
E1C0
E1C0
E1C0
E1C0
F3C0
7FC0
3CC0
ENDCHAR
STARTCHAR e
ENCODING 101
SWIDTH 614 0
DWIDTH 11 0
BBX 9 10 1 0
BITMAP
1E00
7F00
7380
E380
FF80
FF80
E000
F180
7F80
1F00
ENDCHAR
STARTCHAR f
ENCODING 102
SWIDTH 461 0
DWIDTH 8 0
BBX 7 14 1 0
BITMAP
1E
3E
70
70
FE
FE
70
70
70
70
70
70
70
70
ENDCHAR
STARTCHAR g
ENCODING 103
SWIDTH 696 0
DWIDTH 13 0
BBX 10 13 1 -3
BITMAP
1DC0
7FC0
71C0
E1C0
E1C0
E1C0
F3C0
7FC0
3DC0
01C0
61C0
7F80
3F00
ENDCHAR
STARTCHAR h
ENCODING 104
SWIDTH 693 0
DWIDTH 13 0
BBX 9 14 2 0
BITMAP
E000
E000
E000
E000
EF00
FF80
F380
E380
E380
E380
E380
E380
E380
E380
ENDCHAR
STARTCHAR i
ENCODING 105
SWIDTH 361 0
DWIDTH 7 0
BBX 3 14 2 0
BITMAP
E0
E0
00
00
E0
E0
E0
E0
E0
E0
E0
E0
E0
E0
ENDCHAR
STARTCHAR j
ENCODING 106
SWIDTH 361 0
DWIDTH 7 0
BBX 5 17 0 -3
BITMAP
38
38
00
00
38
38
38
38
38
38
38
38
38
38
30
F0
C0
ENDCHAR
STARTCHAR k
ENCODING 107
SWIDTH 681 0
DWIDTH 13 0
BBX 10 14 2 0
BITMAP
E000
E000
E000
E000
E180
E380
E700
EE00
FC00
FE00
EF00
E780
E3C0
E1C0
ENDCHAR
STARTCHAR l
ENCODING 108
SWIDTH 361 0
DWIDTH 7 0
BBX 3 14 2 0
BITMAP
E0
E0
E0
E0
E0
E0
E0
E0
E0
E0
E0
E0
E0
E0
ENDCHAR
STARTCHAR m
ENCODING 109
SWIDTH 1006 0
DWIDTH 19 0
BBX 15 10 2 0
BITMAP
CF3C
FFFE
F3CE
E38E
E38E
E38E
E38E
E38E
E38E
E38E
ENDCHAR
STARTCHAR n
ENCODING 110
SWIDTH 693 0
DWIDTH 13 0
BBX 9 10 2 0
BITMAP
CF00
FF80
F380
E380
E380
E380
E380
E380
E380
E380
ENDCHAR
STARTCHAR o
ENCODING 111
SWIDTH 675 0
DWIDTH 13 0
BBX 11 10 1 0
BITMAP
1F00
7FC0
71C0
E0E0
E0E0
E0E0
E0E0
71C0
7FC0
1F00
ENDCHAR
STARTCHAR p
ENCODING 112
SWIDTH 696 0
DWIDTH 13 0
BBX 10 13 2 -3
BITMAP
CF00
FF80
F3C0
E1C0
E1C0
E1C0
E1C0
E380
FF80
EE00
E000
E000
E000
ENDCHAR
STARTCHAR q
ENCODING 113
SWIDTH 696 0
DWIDTH 13 0
BBX 10 13 1 -3
BITMAP
1DC0
7FC0
71C0
E1C0
E1C0
E1C0
E1C0
F3C0
7FC0
3DC0
01C0
01C0
01C0
ENDCHAR
STARTCHAR r
ENCODING 114
SWIDTH 500 0
DWIDTH 9 0
BBX 7 10 2 0
BITMAP
E6
EE
FE
F0
E0
E0
E0
E0
E0
E0
ENDCHAR
STARTCHAR s
ENCODING 115
SWIDTH 622 0
DWIDTH 11 0
BBX 9 10 1 0
BITMAP
3F00
7F80
E180
F000
7C00
1F00
0780
C380
FF00
7E00
ENDCHAR
STARTCHAR t
ENCODING 116
SWIDTH 436 0
DWIDTH 8 0
BBX 7 13 1 0
BITMAP
30
30
70
FE
FE
70
70
70
70
70
70
3E
1E
ENDCHAR
STARTCHAR u
ENCODING 117
SWIDTH 693 0
DWIDTH 13 0
BBX 9 10 2 0
BITMAP
E380
E380
E380
E380
E380
E380
E380
E780
FF80
7980
ENDCHAR
STARTCHAR v
ENCODING 118
SWIDTH 663 0
DWIDTH 12 0
BBX 10 10 1 0
BITMAP
E0C0
E0C0
E1C0
F180
7380
7B00
3F00
3E00
1C00
1C00
ENDCHAR
STARTCHAR w
ENCODING 119
SWIDTH 885 0
DWIDTH 16 0
BBX 14 10 1 0
BITMAP
E00C
E38C
E38C
E38C
F7D8
75D8
7DF0
7CF0
38E0
38E0
ENDCHAR
STARTCHAR x
ENCODING 120
SWIDTH 568 0
DWIDTH 11 0
BBX 9 10 1 0
BITMAP
E180
E380
7300
7600
3C00
3E00
7700
6700
E380
C380
ENDCHAR
STARTCHAR y
ENCODING 121
SWIDTH 645 0
DWIDTH 12 0
BBX 10 13 1 -3
BITMAP
E0C0
E0C0
E1C0
7180
7380
3B00
3F00
1E00
1E00
0C00
1C00
3800
3800
ENDCHAR
STARTCHAR z
ENCODING 122
SWIDTH 608 0
DWIDTH 11 0
BBX 9 10 1 0
BITMAP
FF80
FF80
0780
0F00
1E00
3C00
7800
F000
FF80
FF80
ENDCHAR
STARTCHAR braceleft
ENCODING 123
SWIDTH 386 0
DWIDTH 7 0
BBX 5 16 2 -2
BITMAP
78
F8
E0
E0
70
30
30
E0
F0
30
30
60
E0
E0
F8
78
ENDCHAR
STARTCHAR bar
ENCODING 124
SWIDTH 265 0
DWIDTH 6 0
BBX 2 16 2 -2
BITMAP
C0
C0
C0
C0
C0
C0
C0
C0
C0
C0
C0
C0
C0
C0
C0
C0
ENDCHAR
STARTCHAR braceright
ENCODING 125
SWIDTH 386 0
DWIDTH 7 0
BBX 5 16 0 -2
BITMAP
F0
F8
38
38
70
60
60
38
78
60
60
30
38
38
F8
F0
ENDCHAR
STARTCHAR asciitilde
ENCODING 126
SWIDTH 687 0
DWIDTH 13 0
BBX 10 3 2 5
BITMAP
7CC0
FFC0
CF80
ENDCHAR
STARTCHAR space
ENCODING 160
SWIDTH 343 0
DWIDTH 5 0
BBX 0 0 0 0
BITMAP
ENDCHAR
STARTCHAR exclamdown
ENCODING 161
SWIDTH 265 0
DWIDTH 5 0
BBX 3 13 1 -3
BITMAP
E0
E0
E0
00
40
40
C0
E0
E0
E0
E0
E0
E0
ENDCHAR
STARTCHAR cent
ENCODING 162
SWIDTH 687 0
DWIDTH 13 0
BBX 10 13 2 0
BITMAP
0600
0600
1F80
7FC0
70C0
E000
E000
E000
F000
7FC0
1FC0
0600
0600
ENDCHAR
STARTCHAR sterling
ENCODING 163
SWIDTH 687 0
DWIDTH 13 0
BBX 10 13 2 0
BITMAP
0F80
1FC0
38C0
3800
3800
FF00
FF00
3800
3800
3000
6000
FFC0
FFC0
ENDCHAR
STARTCHAR currency
ENCODING 164
SWIDTH 687 0
DWIDTH 13 0
BBX 12 11 1 1
BITMAP
C030
6060
1F80
3FC0
39C0
39C0
39C0
3FC0
1F80
6060
C030
ENDCHAR
STARTCHAR yen
ENCODING 165
SWIDTH 687 0
DWIDTH 13 0
BBX 11 13 1 0
BITMAP
E0E0
E0E0
70C0
71C0
3980
3B80
1F00
0E00
3F80
0E00
3F80
0E00
0E00
ENDCHAR
STARTCHAR brokenbar
ENCODING 166
SWIDTH 265 0
DWIDTH 6 0
BBX 2 16 2 -2
BITMAP
C0
C0
C0
C0
C0
C0
00
00
00
C0
C0
C0
C0
C0
C0
C0
ENDCHAR
STARTCHAR section
ENCODING 167
SWIDTH 693 0
DWIDTH 13 0
BBX 9 15 2 -2
BITMAP
3F00
7F80
E180
F000
7C00
DF00
C780
E380
F180
7D80
1F00
0780
C380
FF00
7E00
ENDCHAR
STARTCHAR dieresis
ENCODING 168
SWIDTH 675 0
DWIDTH 13 0
BBX 6 2 4 11
BITMAP
CC
CC
ENDCHAR
STARTCHAR copyright
ENCODING 169
SWIDTH 825 0
DWIDTH 15 0
BBX 13 13 1 0
BITMAP
0F80
3FE0
7070
6730
CC98
CC18
CC18
CC18
CC98
6730
7070
3FE0
0F80
ENDCHAR
STARTCHAR ordfeminine
ENCODING 170
SWIDTH 536 0
DWIDTH 10 0
BBX 8 8 1 5
BITMAP
7C
FE
0E
7E
EE
EE
FF
77
ENDCHAR
STARTCHAR guillemotleft
ENCODING 171
SWIDTH 614 0
DWIDTH 11 0
BBX 10 8 0 1
BITMAP
1080
39C0
7380
E700
E700
7380
39C0
1080
ENDCHAR
STARTCHAR logicalnot
ENCODING 172
SWIDTH 687 0
DWIDTH 13 0
BBX 10 5 2 2
BITMAP
FFC0
FFC0
00C0
00C0
00C0
ENDCHAR
STARTCHAR hyphen
ENCODING 173
SWIDTH 289 0
DWIDTH 5 0
BBX 4 2 1 5
BITMAP
F0
F0
ENDCHAR
STARTCHAR registered
ENCODING 174
SWIDTH 687 0
DWIDTH 13 0
BBX 10 10 2 3
BITMAP
1E00
7F80
6180
DEC0
DAC0
DCC0
DAC0
6180
7F80
1E00
ENDCHAR
STARTCHAR macron
ENCODING 175
SWIDTH 675 0
DWIDTH 13 0
BBX 5 2 4 11
BITMAP
F8
F8
ENDCHAR
STARTCHAR degree
ENCODING 176
SWIDTH 241 0
DWIDTH 5 0
BBX 5 4 0 9
BITMAP
70
D8
D8
70
ENDCHAR
STARTCHAR plusminus
ENCODING 177
SWIDTH 687 0
DWIDTH 13 0
BBX 10 11 2 1
BITMAP
0C00
0C00
0C00
FFC0
FFC0
0C00
0C00
0C00
0000
FFC0
FFC0
ENDCHAR
STARTCHAR twosuperior
ENCODING 178
SWIDTH 536 0
DWIDTH 10 0
BBX 7 8 2 5
BITMAP
7C
FE
0E
1E
7C
E0
FE
FE
ENDCHAR
STARTCHAR threesuperior
ENCODING 179
SWIDTH 536 0
DWIDTH 10 0
BBX 7 8 2 5
BITMAP
FC
FE
0E
7C
7E
0E
FE
FC
ENDCHAR
STARTCHAR acute
ENCODING 180
SWIDTH 675 0
DWIDTH 13 0
BBX 5 2 4 11
BITMAP
78
E0
ENDCHAR
STARTCHAR mu
ENCODING 181
SWIDTH 699 0
DWIDTH 13 0
BBX 9 13 2 -3
BITMAP
E380
E380
E380
E380
E380
E380
E380
F780
FF80
F980
E000
E000
E000
ENDCHAR
STARTCHAR paragraph
ENCODING 182
SWIDTH 693 0
DWIDTH 13 0
BBX 9 15 2 -2
BITMAP
7F80
FD80
FD80
FD80
FD80
7D80
3D80
0D80
0D80
0D80
0D80
0D80
0D80
0D80
0D80
ENDCHAR
STARTCHAR periodcentered
ENCODING 183
SWIDTH 343 0
DWIDTH 13 0
BBX 3 3 5 4
BITMAP
E0
E0
E0
ENDCHAR
STARTCHAR cedilla
ENCODING 184
SWIDTH 675 0
DWIDTH 13 0
BBX 4 3 5 -3
BITMAP
60
30
E0
ENDCHAR
STARTCHAR onesuperior
ENCODING 185
SWIDTH 536 0
DWIDTH 10 0
BBX 5 8 2 5
BITMAP
38
F8
F8
38
38
38
38
38
ENDCHAR
STARTCHAR ordmasculine
ENCODING 186
SWIDTH 536 0
DWIDTH 10 0
BBX 8 8 1 5
BITMAP
3C
7E
E7
E7
E7
E7
7E
3C
ENDCHAR
STARTCHAR guillemotright
ENCODING 187
SWIDTH 614 0
DWIDTH 11 0
BBX 10 8 1 1
BITMAP
4200
E700
7380
39C0
39C0
7380
E700
4200
ENDCHAR
STARTCHAR onequarter
ENCODING 188
SWIDTH 1066 0
DWIDTH 20 0
BBX 19 13 0 0
BITMAP
380700
F80E00
F81C00
383800
387000
38E000
38C3C0
01C7C0
0389C0
071FE0
0E1FE0
1C01C0
3801C0
ENDCHAR
STARTCHAR onehalf
ENCODING 189
SWIDTH 1066 0
DWIDTH 20 0
BBX 19 13 0 0
BITMAP
380E00
F81C00
F83800
383000
387000
38E000
39CFC0
039FE0
0718E0
0601C0
0E0700
1C1FE0
381FE0
ENDCHAR
STARTCHAR threequarters
ENCODING 190
SWIDTH 1120 0
DWIDTH 21 0
BBX 19 13 0 0
BITMAP
7C0700
FE0E00
0E1C00
3C3800
0E7000
FEE000
7CC3C0
01C7C0
0389C0
071FE0
0E1FE0
1C01C0
3801C0
ENDCHAR
STARTCHAR questiondown
ENCODING 191
SWIDTH 572 0
DWIDTH 11 0
BBX 9 13 1 -3
BITMAP
0700
0700
0700
0000
0000
0600
0E00
3C00
7000
E000
E180
7F80
3F00
ENDCHAR
STARTCHAR Agrave
ENCODING 192
SWIDTH 773 0
DWIDTH 14 0
BBX 13 16 1 0
BITMAP
0F00
0380
0000
0700
0700
0F80
0F80
19C0
19C0
30E0
3FE0
7FF0
7070
6070
E038
E038
ENDCHAR
STARTCHAR Aacute
ENCODING 193
SWIDTH 773 0
DWIDTH 14 0
BBX 13 16 1 0
BITMAP
0780
0E00
0000
0700
0700
0F80
0F80
19C0
19C0
30E0
3FE0
7FF0
7070
6070
E038
E038
ENDCHAR
STARTCHAR Acircumflex
ENCODING 194
SWIDTH 773 0
DWIDTH 14 0
BBX 13 16 1 0
BITMAP
0700
0D80
0000
0700
0700
0F80
0F80
19C0
19C0
30E0
3FE0
7FF0
7070
6070
E038
E038
ENDCHAR
STARTCHAR Atilde
ENCODING 195
SWIDTH 773 0
DWIDTH 14 0
BBX 13 16 1 0
BITMAP
0E80
1700
0000
0700
0700
0F80
0F80
19C0
19C0
30E0
3FE0
7FF0
7070
6070
E038
E038
ENDCHAR
STARTCHAR Adieresis
ENCODING 196
SWIDTH 773 0
DWIDTH 14 0
BBX 13 16 1 0
BITMAP
1980
1980
0000
0700
0700
0F80
0F80
19C0
19C0
30E0
3FE0
7FF0
7070
6070
E038
E038
ENDCHAR
STARTCHAR Aring
ENCODING 197
SWIDTH 773 0
DWIDTH 14 0
BBX 13 16 1 0
BITMAP
0700
0980
0700
0700
0700
0F80
0F80
19C0
19C0
30E0
3FE0
7FF0
7070
6070
E038
E038
ENDCHAR
STARTCHAR AE
ENCODING 198
SWIDTH 997 0
DWIDTH 18 0
BBX 16 13 1 0
BITMAP
03FF
03FF
06E0
0CE0
0CE0
18FE
38FE
3FE0
7FE0
60E0
E0E0
E0FF
E0FF
ENDCHAR
STARTCHAR Ccedilla
ENCODING 199
SWIDTH 726 0
DWIDTH 14 0
BBX 12 16 1 -3
BITMAP
0FE0
3FF0
7830
7000
E000
E000
E000
E000
F000
7000
7C30
3FF0
0FC0
0700
0380
0F00
ENDCHAR
STARTCHAR Egrave
ENCODING 200
SWIDTH 645 0
DWIDTH 12 0
BBX 9 16 2 0
BITMAP
3C00
0E00
0000
FF80
FF80
E000
E000
E000
FF00
FF00
E000
E000
E000
E000
FF80
FF80
ENDCHAR
STARTCHAR Eacute
ENCODING 201
SWIDTH 645 0
DWIDTH 12 0
BBX 9 16 2 0
BITMAP
0F00
1C00
0000
FF80
FF80
E000
E000
E000
FF00
FF00
E000
E000
E000
E000
FF80
FF80
ENDCHAR
STARTCHAR Ecircumflex
ENCODING 202
SWIDTH 645 0
DWIDTH 12 0
BBX 9 16 2 0
BITMAP
1C00
3600
0000
FF80
FF80
E000
E000
E000
FF00
FF00
E000
E000
E000
E000
FF80
FF80
ENDCHAR
STARTCHAR Edieresis
ENCODING 203
SWIDTH 645 0
DWIDTH 12 0
BBX 9 16 2 0
BITMAP
3300
3300
0000
FF80
FF80
E000
E000
E000
FF00
FF00
E000
E000
E000
E000
FF80
FF80
ENDCHAR
STARTCHAR Igrave
ENCODING 204
SWIDTH 361 0
DWIDTH 7 0
BBX 5 16 1 0
BITMAP
F0
38
00
70
70
70
70
70
70
70
70
70
70
70
70
70
ENDCHAR
STARTCHAR Iacute
ENCODING 205
SWIDTH 361 0
DWIDTH 7 0
BBX 5 16 1 0
BITMAP
78
E0
00
70
70
70
70
70
70
70
70
70
70
70
70
70
ENDCHAR
STARTCHAR Icircumflex
ENCODING 206
SWIDTH 361 0
DWIDTH 7 0
BBX 5 16 1 0
BITMAP
70
D8
00
70
70
70
70
70
70
70
70
70
70
70
70
70
ENDCHAR
STARTCHAR Idieresis
ENCODING 207
SWIDTH 361 0
DWIDTH 7 0
BBX 6 16 0 0
BITMAP
CC
CC
00
38
38
38
38
38
38
38
38
38
38
38
38
38
ENDCHAR
STARTCHAR Eth
ENCODING 208
SWIDTH 819 0
DWIDTH 15 0
BBX 14 13 0 0
BITMAP
3FC0
3FF0
3878
3838
381C
FF9C
FF9C
381C
381C
3838
3878
3FF0
3FC0
ENDCHAR
STARTCHAR Ntilde
ENCODING 209
SWIDTH 783 0
DWIDTH 14 0
BBX 10 16 2 0
BITMAP
1D00
2E00
0000
E0C0
E0C0
F0C0
F8C0
F8C0
DCC0
CEC0
CEC0
C7C0
C3C0
C3C0
C1C0
C0C0
ENDCHAR
STARTCHAR Ograve
ENCODING 210
SWIDTH 855 0
DWIDTH 16 0
BBX 14 16 1 0
BITMAP
0F00
0380
0000
0FC0
3FF0
7878
7038
E01C
E01C
E01C
E01C
E01C
7038
7878
3FF0
0FC0
ENDCHAR
STARTCHAR Oacute
ENCODING 211
SWIDTH 855 0
DWIDTH 16 0
BBX 14 16 1 0
BITMAP
03C0
0700
0000
0FC0
3FF0
7878
7038
E01C
E01C
E01C
E01C
E01C
7038
7878
3FF0
0FC0
ENDCHAR
STARTCHAR Ocircumflex
ENCODING 212
SWIDTH 855 0
DWIDTH 16 0
BBX 14 16 1 0
BITMAP
0380
06C0
0000
0FC0
3FF0
7878
7038
E01C
E01C
E01C
E01C
E01C
7038
7878
3FF0
0FC0
ENDCHAR
STARTCHAR Otilde
ENCODING 213
SWIDTH 855 0
DWIDTH 16 0
BBX 14 16 1 0
BITMAP
0740
0B80
0000
0FC0
3FF0
7878
7038
E01C
E01C
E01C
E01C
E01C
7038
7878
3FF0
0FC0
ENDCHAR
STARTCHAR Odieresis
ENCODING 214
SWIDTH 855 0
DWIDTH 16 0
BBX 14 16 1 0
BITMAP
0CC0
0CC0
0000
0FC0
3FF0
7878
7038
E01C
E01C
E01C
E01C
E01C
7038
7878
3FF0
0FC0
ENDCHAR
STARTCHAR multiply
ENCODING 215
SWIDTH 687 0
DWIDTH 13 0
BBX 10 10 2 1
BITMAP
4080
E1C0
7380
3B00
0E00
1C00
3700
7380
E1C0
4080
ENDCHAR
STARTCHAR Oslash
ENCODING 216
SWIDTH 855 0
DWIDTH 16 0
BBX 14 15 1 -1
BITMAP
000C
0FDC
3FF8
7838
7078
E0DC
E19C
E31C
E61C
EC1C
7838
7078
7FF0
EFC0
C000
ENDCHAR
STARTCHAR Ugrave
ENCODING 217
SWIDTH 783 0
DWIDTH 15 0
BBX 11 16 2 0
BITMAP
1E00
0700
0000
E0E0
E0E0
E0E0
E0E0
E0E0
E0E0
E0E0
E0E0
E0E0
E0E0
71C0
7FC0
1F00
ENDCHAR
STARTCHAR Uacute
ENCODING 218
SWIDTH 783 0
DWIDTH 15 0
BBX 11 16 2 0
BITMAP
0780
0E00
0000
E0E0
E0E0
E0E0
E0E0
E0E0
E0E0
E0E0
E0E0
E0E0
E0E0
71C0
7FC0
1F00
ENDCHAR
STARTCHAR Ucircumflex
ENCODING 219
SWIDTH 783 0
DWIDTH 15 0
BBX 11 16 2 0
BITMAP
0E00
1B00
0000
E0E0
E0E0
E0E0
E0E0
E0E0
E0E0
E0E0
E0E0
E0E0
E0E0
71C0
7FC0
1F00
ENDCHAR
STARTCHAR Udieresis
ENCODING 220
SWIDTH 783 0
DWIDTH 15 0
BBX 11 16 2 0
BITMAP
1980
1980
0000
E0E0
E0E0
E0E0
E0E0
E0E0
E0E0
E0E0
E0E0
E0E0
E0E0
71C0
7FC0
1F00
ENDCHAR
STARTCHAR Yacute
ENCODING 221
SWIDTH 738 0
DWIDTH 13 0
BBX 11 16 1 0
BITMAP
0780
0E00
0000
E0E0
E0E0
70C0
71C0
3980
3980
1F00
0E00
0E00
0E00
0E00
0E00
0E00
ENDCHAR
STARTCHAR Thorn
ENCODING 222
SWIDTH 657 0
DWIDTH 13 0
BBX 10 13 2 0
BITMAP
E000
E000
E000
FF00
FF80
E1C0
E1C0
E1C0
FF80
FF00
E000
E000
E000
ENDCHAR
STARTCHAR germandbls
ENCODING 223
SWIDTH 724 0
DWIDTH 13 0
BBX 10 14 2 0
BITMAP
1E00
7F00
E380
E380
E700
EE00
EE00
EF00
E780
E3C0
E1C0
E1C0
E7C0
E780
ENDCHAR
STARTCHAR agrave
ENCODING 224
SWIDTH 623 0
DWIDTH 12 0
BBX 10 13 1 0
BITMAP
3C00
0E00
0000
3E00
7F00
6380
0380
1F80
7F80
E380
E380
FFC0
79C0
ENDCHAR
STARTCHAR aacute
ENCODING 225
SWIDTH 623 0
DWIDTH 12 0
BBX 10 13 1 0
BITMAP
0F00
1C00
0000
3E00
7F00
6380
0380
1F80
7F80
E380
E380
FFC0
79C0
ENDCHAR
STARTCHAR acircumflex
ENCODING 226
SWIDTH 623 0
DWIDTH 12 0
BBX 10 13 1 0
BITMAP
1C00
3600
0000
3E00
7F00
6380
0380
1F80
7F80
E380
E380
FFC0
79C0
ENDCHAR
STARTCHAR atilde
ENCODING 227
SWIDTH 623 0
DWIDTH 12 0
BBX 10 13 1 0
BITMAP
1D00
2E00
0000
3E00
7F00
6380
0380
1F80
7F80
E380
E380
FFC0
79C0
ENDCHAR
STARTCHAR adieresis
ENCODING 228
SWIDTH 623 0
DWIDTH 12 0
BBX 10 13 1 0
BITMAP
3300
3300
0000
3E00
7F00
6380
0380
1F80
7F80
E380
E380
FFC0
79C0
ENDCHAR
STARTCHAR aring
ENCODING 229
SWIDTH 623 0
DWIDTH 12 0
BBX 10 13 1 0
BITMAP
0E00
1300
0E00
3E00
7F00
6380
0380
1F80
7F80
E380
E380
FFC0
79C0
ENDCHAR
STARTCHAR ae
ENCODING 230
SWIDTH 913 0
DWIDTH 17 0
BBX 15 10 1 0
BITMAP
3E78
7FFC
63CE
038E
1FFE
7FFE
E380
E3C6
FFFE
7C7C
ENDCHAR
STARTCHAR ccedilla
ENCODING 231
SWIDTH 545 0
DWIDTH 11 0
BBX 9 13 1 -3
BITMAP
1F00
7F80
7180
E000
E000
E000
E000
F180
7F80
1E00
0C00
0600
1C00
ENDCHAR
STARTCHAR egrave
ENCODING 232
SWIDTH 614 0
DWIDTH 11 0
BBX 9 13 1 0
BITMAP
3C00
0E00
0000
1E00
7F00
7380
E380
FF80
FF80
E000
F180
7F80
1F00
ENDCHAR
STARTCHAR eacute
ENCODING 233
SWIDTH 614 0
DWIDTH 11 0
BBX 9 13 1 0
BITMAP
0F00
1C00
0000
1E00
7F00
7380
E380
FF80
FF80
E000
F180
7F80
1F00
ENDCHAR
STARTCHAR ecircumflex
ENCODING 234
SWIDTH 614 0
DWIDTH 11 0
BBX 9 13 1 0
BITMAP
1C00
3600
0000
1E00
7F00
7380
E380
FF80
FF80
E000
F180
7F80
1F00
ENDCHAR
STARTCHAR edieresis
ENCODING 235
SWIDTH 614 0
DWIDTH 11 0
BBX 9 13 1 0
BITMAP
3300
3300
0000
1E00
7F00
7380
E380
FF80
FF80
E000
F180
7F80
1F00
ENDCHAR
STARTCHAR igrave
ENCODING 236
SWIDTH 361 0
DWIDTH 7 0
BBX 5 13 0 0
BITMAP
F0
38
00
38
38
38
38
38
38
38
38
38
38
ENDCHAR
STARTCHAR iacute
ENCODING 237
SWIDTH 361 0
DWIDTH 7 0
BBX 5 13 1 0
BITMAP
78
E0
00
70
70
70
70
70
70
70
70
70
70
ENDCHAR
STARTCHAR icircumflex
ENCODING 238
SWIDTH 361 0
DWIDTH 7 0
BBX 5 13 1 0
BITMAP
70
D8
00
70
70
70
70
70
70
70
70
70
70
ENDCHAR
STARTCHAR idieresis
ENCODING 239
SWIDTH 361 0
DWIDTH 7 0
BBX 6 13 0 0
BITMAP
CC
CC
00
38
38
38
38
38
38
38
38
38
38
ENDCHAR
STARTCHAR eth
ENCODING 240
SWIDTH 675 0
DWIDTH 13 0
BBX 12 14 1 0
BITMAP
1E00
1FB0
03F0
0FC0
01C0
1FE0
7FE0
70E0
E0E0
E0E0
E0E0
71C0
7FC0
1F00
ENDCHAR
STARTCHAR ntilde
ENCODING 241
SWIDTH 693 0
DWIDTH 13 0
BBX 9 13 2 0
BITMAP
1D00
2E00
0000
CF00
FF80
F380
E380
E380
E380
E380
E380
E380
E380
ENDCHAR
STARTCHAR ograve
ENCODING 242
SWIDTH 675 0
DWIDTH 13 0
BBX 11 13 1 0
BITMAP
3C00
0E00
0000
1F00
7FC0
71C0
E0E0
E0E0
E0E0
E0E0
71C0
7FC0
1F00
ENDCHAR
STARTCHAR oacute
ENCODING 243
SWIDTH 675 0
DWIDTH 13 0
BBX 11 13 1 0
BITMAP
0780
0E00
0000
1F00
7FC0
71C0
E0E0
E0E0
E0E0
E0E0
71C0
7FC0
1F00
ENDCHAR
STARTCHAR ocircumflex
ENCODING 244
SWIDTH 675 0
DWIDTH 13 0
BBX 11 13 1 0
BITMAP
0E00
1B00
0000
1F00
7FC0
71C0
E0E0
E0E0
E0E0
E0E0
71C0
7FC0
1F00
ENDCHAR
STARTCHAR otilde
ENCODING 245
SWIDTH 675 0
DWIDTH 13 0
BBX 11 13 1 0
BITMAP
0E80
1700
0000
1F00
7FC0
71C0
E0E0
E0E0
E0E0
E0E0
71C0
7FC0
1F00
ENDCHAR
STARTCHAR odieresis
ENCODING 246
SWIDTH 675 0
DWIDTH 13 0
BBX 11 13 1 0
BITMAP
1980
1980
0000
1F00
7FC0
71C0
E0E0
E0E0
E0E0
E0E0
71C0
7FC0
1F00
ENDCHAR
STARTCHAR divide
ENCODING 247
SWIDTH 687 0
DWIDTH 13 0
BBX 10 10 2 1
BITMAP
0C00
0C00
0000
0000
FFC0
FFC0
0000
0000
0C00
0C00
ENDCHAR
STARTCHAR oslash
ENCODING 248
SWIDTH 675 0
DWIDTH 13 0
BBX 11 10 1 0
BITMAP
1F60
7FE0
71C0
E2E0
E6E0
ECE0
E8E0
71C0
FFC0
DF00
ENDCHAR
STARTCHAR ugrave
ENCODING 249
SWIDTH 693 0
DWIDTH 13 0
BBX 9 13 2 0
BITMAP
3C00
0E00
0000
E380
E380
E380
E380
E380
E380
E380
E780
FF80
7980
ENDCHAR
STARTCHAR uacute
ENCODING 250
SWIDTH 693 0
DWIDTH 13 0
BBX 9 13 2 0
BITMAP
0F00
1C00
0000
E380
E380
E380
E380
E380
E380
E380
E780
FF80
7980
ENDCHAR
STARTCHAR ucircumflex
ENCODING 251
SWIDTH 693 0
DWIDTH 13 0
BBX 9 13 2 0
BITMAP
1C00
3600
0000
E380
E380
E380
E380
E380
E380
E380
E780
FF80
7980
ENDCHAR
STARTCHAR udieresis
ENCODING 252
SWIDTH 693 0
DWIDTH 13 0
BBX 9 13 2 0
BITMAP
3300
3300
0000
E380
E380
E380
E380
E380
E380
E380
E780
FF80
7980
ENDCHAR
STARTCHAR yacute
ENCODING 253
SWIDTH 645 0
DWIDTH 12 0
BBX 10 16 1 -3
BITMAP
0F00
1C00
0000
E0C0
E0C0
E1C0
7180
7380
3B00
3F00
1E00
1E00
0C00
1C00
3800
3800
ENDCHAR
STARTCHAR thorn
ENCODING 254
SWIDTH 696 0
DWIDTH 13 0
BBX 10 16 2 -3
BITMAP
E000
E000
E000
EF00
FF80
F3C0
E1C0
E1C0
E1C0
E1C0
E380
FF80
EE00
E000
E000
E000
ENDCHAR
STARTCHAR ydieresis
ENCODING 255
SWIDTH 645 0
DWIDTH 12 0
BBX 10 16 1 -3
BITMAP
3300
3300
0000
E0C0
E0C0
E1C0
7180
7380
3B00
3F00
1E00
1E00
0C00
1C00
3800
3800
ENDCHAR
STARTCHAR uni0400
ENCODING 1024
SWIDTH 645 0
DWIDTH 12 0
BBX 9 16 2 0
BITMAP
3C00
0E00
0000
FF80
FF80
E000
E000
E000
FF00
FF00
E000
E000
E000
E000
FF80
FF80
ENDCHAR
STARTCHAR afii10023
ENCODING 1025
SWIDTH 645 0
DWIDTH 12 0
BBX 9 16 2 0
BITMAP
3300
3300
0000
FF80
FF80
E000
E000
E000
FF00
FF00
E000
E000
E000
E000
FF80
FF80
ENDCHAR
STARTCHAR afii10051
ENCODING 1026
SWIDTH 1000 0
DWIDTH 18 0
BBX 16 13 1 0
BITMAP
FFF8
FFF8
0700
0700
077C
07FE
078F
0707
0707
0707
070F
073E
073C
ENDCHAR
STARTCHAR afii10052
ENCODING 1027
SWIDTH 611 0
DWIDTH 11 0
BBX 9 16 2 0
BITMAP
0F00
1C00
0000
FF80
FF80
E000
E000
E000
E000
E000
E000
E000
E000
E000
E000
E000
ENDCHAR
STARTCHAR afii10053
ENCODING 1028
SWIDTH 777 0
DWIDTH 14 0
BBX 12 13 1 0
BITMAP
0FE0
3FF0
7830
7000
E000
FF80
FF80
E000
F000
7000
7C30
3FF0
0FC0
ENDCHAR
STARTCHAR afii10054
ENCODING 1029
SWIDTH 594 0
DWIDTH 11 0
BBX 9 13 1 0
BITMAP
3F00
7F80
E180
E000
F800
FE00
7F00
1F80
0780
0380
C380
FF00
7E00
ENDCHAR
STARTCHAR afii10055
ENCODING 1030
SWIDTH 361 0
DWIDTH 7 0
BBX 3 13 2 0
BITMAP
E0
E0
E0
E0
E0
E0
E0
E0
E0
E0
E0
E0
E0
ENDCHAR
STARTCHAR afii10056
ENCODING 1031
SWIDTH 361 0
DWIDTH 7 0
BBX 6 16 0 0
BITMAP
CC
CC
00
38
38
38
38
38
38
38
38
38
38
38
38
38
ENDCHAR
STARTCHAR afii10057
ENCODING 1032
SWIDTH 501 0
DWIDTH 9 0
BBX 7 15 0 -2
BITMAP
0E
0E
0E
0E
0E
0E
0E
0E
0E
0E
0E
0E
1C
FC
F0
ENDCHAR
STARTCHAR afii10058
ENCODING 1033
SWIDTH 1166 0
DWIDTH 21 0
BBX 19 13 1 0
BITMAP
3FF000
3FF000
387000
387000
387000
387F00
387FC0
3871C0
3870E0
3870E0
7071E0
F07FC0
E07F00
ENDCHAR
STARTCHAR afii10059
ENCODING 1034
SWIDTH 833 0
DWIDTH 15 0
BBX 18 13 2 0
BITMAP
E0E000
E0E000
E0E000
E0E000
E0E000
FFFE00
FFFF80
E0E380
E0E1C0
E0E1C0
E0E3C0
E0FF80
E0FE00
ENDCHAR
STARTCHAR afii10060
ENCODING 1035
SWIDTH 1000 0
DWIDTH 18 0
BBX 16 13 1 0
BITMAP
FFF8
FFF8
0700
0700
077C
07FE
078F
0707
0707
0707
0707
0707
0707
ENDCHAR
STARTCHAR afii10061
ENCODING 1036
SWIDTH 777 0
DWIDTH 14 0
BBX 11 16 2 0
BITMAP
0780
0E00
0000
E0C0
E1C0
E380
E700
EE00
F800
F800
FC00
EF00
E780
E3C0
E1E0
E0E0
ENDCHAR
STARTCHAR afii10062
ENCODING 1038
SWIDTH 777 0
DWIDTH 14 0
BBX 13 16 1 0
BITMAP
18C0
0F80
0200
E038
E038
7030
7070
3860
1CC0
1DC0
0F80
0700
0700
0E00
3C00
3800
ENDCHAR
STARTCHAR afii10145
ENCODING 1039
SWIDTH 833 0
DWIDTH 15 0
BBX 11 16 2 -3
BITMAP
E0E0
E0E0
E0E0
E0E0
E0E0
E0E0
E0E0
E0E0
E0E0
E0E0
E0E0
FFE0
FFE0
0E00
0E00
0E00
ENDCHAR
STARTCHAR afii10017
ENCODING 1040
SWIDTH 777 0
DWIDTH 14 0
BBX 13 13 1 0
BITMAP
0700
0700
0F80
0F80
19C0
19C0
30E0
3FE0
7FF0
7070
6070
E038
E038
ENDCHAR
STARTCHAR afii10018
ENCODING 1041
SWIDTH 722 0
DWIDTH 13 0
BBX 10 13 2 0
BITMAP
FFC0
FFC0
E000
E000
E000
FE00
FF80
E380
E1C0
E1C0
E3C0
FF80
FF00
ENDCHAR
STARTCHAR afii10019
ENCODING 1042
SWIDTH 722 0
DWIDTH 13 0
BBX 10 13 2 0
BITMAP
FF00
FF80
E380
E380
E300
FE00
FF00
E380
E1C0
E1C0
E3C0
FF80
FE00
ENDCHAR
STARTCHAR afii10020
ENCODING 1043
SWIDTH 611 0
DWIDTH 11 0
BBX 9 13 2 0
BITMAP
FF80
FF80
E000
E000
E000
E000
E000
E000
E000
E000
E000
E000
E000
ENDCHAR
STARTCHAR afii10021
ENCODING 1044
SWIDTH 833 0
DWIDTH 15 0
BBX 13 16 1 -3
BITMAP
3FF0
3FF0
3870
3870
3870
3870
3870
3870
7070
7070
7070
FFF8
FFF8
E038
E038
E038
ENDCHAR
STARTCHAR afii10022
ENCODING 1045
SWIDTH 666 0
DWIDTH 12 0
BBX 9 13 2 0
BITMAP
FF80
FF80
E000
E000
E000
FF00
FF00
E000
E000
E000
E000
FF80
FF80
ENDCHAR
STARTCHAR afii10024
ENCODING 1046
SWIDTH 1055 0
DWIDTH 19 0
BBX 17 13 1 0
BITMAP
61C300
71C700
39CE00
1DDC00
0FF800
03E000
07F000
0FF800
1DDC00
3DDE00
79CF00
F1C780
E1C380
ENDCHAR
STARTCHAR afii10025
ENCODING 1047
SWIDTH 666 0
DWIDTH 12 0
BBX 10 13 1 0
BITMAP
7F00
FF80
C380
0380
0300
1E00
1F00
0380
01C0
01C0
C3C0
FF80
3E00
ENDCHAR
STARTCHAR afii10026
ENCODING 1048
SWIDTH 777 0
DWIDTH 14 0
BBX 10 13 2 0
BITMAP
C1C0
C1C0
C3C0
C7C0
C7C0
CEC0
DCC0
DCC0
F8C0
F0C0
F0C0
E0C0
C0C0
ENDCHAR
STARTCHAR afii10027
ENCODING 1049
SWIDTH 777 0
DWIDTH 14 0
BBX 10 16 2 0
BITMAP
3300
1E00
0000
C1C0
C1C0
C3C0
C7C0
C7C0
CEC0
DCC0
DCC0
F8C0
F0C0
F0C0
E0C0
C0C0
ENDCHAR
STARTCHAR afii10028
ENCODING 1050
SWIDTH 777 0
DWIDTH 14 0
BBX 11 13 2 0
BITMAP
E0C0
E1C0
E380
E700
EE00
F800
F800
FC00
EF00
E780
E3C0
E1E0
E0E0
ENDCHAR
STARTCHAR afii10029
ENCODING 1051
SWIDTH 833 0
DWIDTH 15 0
BBX 12 13 1 0
BITMAP
3FF0
3FF0
3870
3870
3870
3870
3870
3870
3870
3870
7070
F070
E070
ENDCHAR
STARTCHAR afii10030
ENCODING 1052
SWIDTH 1000 0
DWIDTH 18 0
BBX 14 13 2 0
BITMAP
E01C
F03C
F03C
F87C
F87C
DCDC
DCDC
DC9C
CF9C
CF9C
C71C
C71C
C01C
ENDCHAR
STARTCHAR afii10031
ENCODING 1053
SWIDTH 833 0
DWIDTH 15 0
BBX 11 13 2 0
BITMAP
E0E0
E0E0
E0E0
E0E0
E0E0
FFE0
FFE0
E0E0
E0E0
E0E0
E0E0
E0E0
E0E0
ENDCHAR
STARTCHAR afii10032
ENCODING 1054
SWIDTH 888 0
DWIDTH 16 0
BBX 14 13 1 0
BITMAP
0FC0
3FF0
7878
7038
E01C
E01C
E01C
E01C
E01C
7038
7878
3FF0
0FC0
ENDCHAR
STARTCHAR afii10033
ENCODING 1055
SWIDTH 833 0
DWIDTH 15 0
BBX 11 13 2 0
BITMAP
FFE0
FFE0
E0E0
E0E0
E0E0
E0E0
E0E0
E0E0
E0E0
E0E0
E0E0
E0E0
E0E0
ENDCHAR
STARTCHAR afii10034
ENCODING 1056
SWIDTH 722 0
DWIDTH 13 0
BBX 10 13 2 0
BITMAP
FF00
FF80
E3C0
E1C0
E1C0
E380
FF80
FE00
E000
E000
E000
E000
E000
ENDCHAR
STARTCHAR afii10035
ENCODING 1057
SWIDTH 777 0
DWIDTH 14 0
BBX 12 13 1 0
BITMAP
0FE0
3FF0
7830
7000
E000
E000
E000
E000
F000
7000
7C30
3FF0
0FC0
ENDCHAR
STARTCHAR afii10036
ENCODING 1058
SWIDTH 777 0
DWIDTH 14 0
BBX 13 13 1 0
BITMAP
FFF8
FFF8
0700
0700
0700
0700
0700
0700
0700
0700
0700
0700
0700
ENDCHAR
STARTCHAR afii10037
ENCODING 1059
SWIDTH 777 0
DWIDTH 14 0
BBX 13 13 1 0
BITMAP
E038
E038
7030
7070
3860
1CC0
1DC0
0F80
0700
0700
0E00
3C00
3800
ENDCHAR
STARTCHAR afii10038
ENCODING 1060
SWIDTH 944 0
DWIDTH 17 0
BBX 15 13 1 0
BITMAP
0380
1FF0
7FFC
739C
E38E
E38E
E38E
E38E
739C
7FFC
1FF0
0380
0380
ENDCHAR
STARTCHAR afii10039
ENCODING 1061
SWIDTH 722 0
DWIDTH 13 0
BBX 11 13 1 0
BITMAP
E060
F0E0
71C0
7980
3B80
1F00
1E00
1F00
3F80
7380
63C0
E1E0
C0E0
ENDCHAR
STARTCHAR afii10040
ENCODING 1062
SWIDTH 833 0
DWIDTH 15 0
BBX 12 16 2 -3
BITMAP
E0E0
E0E0
E0E0
E0E0
E0E0
E0E0
E0E0
E0E0
E0E0
E0E0
E0E0
FFF0
FFF0
0070
0070
0070
ENDCHAR
STARTCHAR afii10041
ENCODING 1063
SWIDTH 777 0
DWIDTH 14 0
BBX 11 13 1 0
BITMAP
E0E0
E0E0
E0E0
E0E0
E0E0
E0E0
F1E0
7FE0
3EE0
00E0
00E0
00E0
00E0
ENDCHAR
STARTCHAR afii10042
ENCODING 1064
SWIDTH 1055 0
DWIDTH 19 0
BBX 15 13 2 0
BITMAP
E38E
E38E
E38E
E38E
E38E
E38E
E38E
E38E
E38E
E38E
E38E
FFFE
FFFE
ENDCHAR
STARTCHAR afii10043
ENCODING 1065
SWIDTH 1055 0
DWIDTH 19 0
BBX 16 16 2 -3
BITMAP
E38E
E38E
E38E
E38E
E38E
E38E
E38E
E38E
E38E
E38E
E38E
FFFF
FFFF
0007
0007
0007
ENDCHAR
STARTCHAR afii10044
ENCODING 1066
SWIDTH 777 0
DWIDTH 14 0
BBX 12 13 1 0
BITMAP
F800
F800
3800
3800
3800
3F80
3FE0
38E0
3870
3870
38F0
3FE0
3F80
ENDCHAR
STARTCHAR afii10045
ENCODING 1067
SWIDTH 1055 0
DWIDTH 19 0
BBX 15 13 2 0
BITMAP
E00E
E00E
E00E
E00E
E00E
FE0E
FF8E
E38E
E1CE
E1CE
E3CE
FF8E
FE0E
ENDCHAR
STARTCHAR afii10046
ENCODING 1068
SWIDTH 722 0
DWIDTH 13 0
BBX 10 13 2 0
BITMAP
E000
E000
E000
E000
E000
FE00
FF80
E380
E1C0
E1C0
E3C0
FF80
FE00
ENDCHAR
STARTCHAR afii10047
ENCODING 1069
SWIDTH 777 0
DWIDTH 14 0
BBX 12 13 1 0
BITMAP
7F00
FFC0
C1E0
00E0
0070
1FF0
1FF0
0070
00F0
00E0
C3E0
FFC0
3F00
ENDCHAR
STARTCHAR afii10048
ENCODING 1070
SWIDTH 1166 0
DWIDTH 21 0
BBX 18 13 2 0
BITMAP
E07C00
E1FF00
E3C780
E38380
E701C0
FF01C0
FF01C0
E701C0
E701C0
E38380
E3C780
E1FF00
E07C00
ENDCHAR
STARTCHAR afii10049
ENCODING 1071
SWIDTH 722 0
DWIDTH 13 0
BBX 10 13 1 0
BITMAP
3FC0
7FC0
F1C0
E1C0
E1C0
71C0
1FC0
3FC0
39C0
71C0
F1C0
E1C0
E1C0
ENDCHAR
STARTCHAR afii10065
ENCODING 1072
SWIDTH 666 0
DWIDTH 12 0
BBX 10 10 1 0
BITMAP
3E00
7F00
6380
0380
1F80
7F80
E380
E380
FFC0
79C0
ENDCHAR
STARTCHAR afii10066
ENCODING 1073
SWIDTH 722 0
DWIDTH 13 0
BBX 11 15 1 0
BITMAP
0040
1FC0
7F80
7000
E000
EF00
FFC0
F1C0
E0E0
E0E0
E0E0
E0E0
71C0
7FC0
1F00
ENDCHAR
STARTCHAR afii10067
ENCODING 1074
SWIDTH 666 0
DWIDTH 12 0
BBX 9 10 2 0
BITMAP
FE00
FF00
E700
E700
FE00
FF00
E380
E380
FF80
FF00
ENDCHAR
STARTCHAR afii10068
ENCODING 1075
SWIDTH 555 0
DWIDTH 10 0
BBX 8 10 2 0
BITMAP
FF
FF
E0
E0
E0
E0
E0
E0
E0
E0
ENDCHAR
STARTCHAR afii10069
ENCODING 1076
SWIDTH 722 0
DWIDTH 13 0
BBX 11 12 1 -2
BITMAP
3FC0
3FC0
39C0
39C0
39C0
71C0
71C0
71C0
FFE0
FFE0
E0E0
E0E0
ENDCHAR
STARTCHAR afii10070
ENCODING 1077
SWIDTH 611 0
DWIDTH 11 0
BBX 9 10 1 0
BITMAP
1E00
7F00
7380
E380
FF80
FF80
E000
F180
7F80
1F00
ENDCHAR
STARTCHAR afii10072
ENCODING 1078
SWIDTH 1055 0
DWIDTH 19 0
BBX 17 10 1 0
BITMAP
61C300
71C700
39CE00
1DDC00
0FF800
1FFC00
3DDE00
79CF00
F1C780
E1C380
ENDCHAR
STARTCHAR afii10073
ENCODING 1079
SWIDTH 611 0
DWIDTH 11 0
BBX 9 10 1 0
BITMAP
7E00
FF00
C700
0700
1E00
1F00
0380
C380
FF80
3F00
ENDCHAR
STARTCHAR afii10074
ENCODING 1080
SWIDTH 722 0
DWIDTH 13 0
BBX 9 10 2 0
BITMAP
C380
C780
C780
CF80
DD80
DD80
F980
F180
F180
E180
ENDCHAR
STARTCHAR afii10075
ENCODING 1081
SWIDTH 722 0
DWIDTH 13 0
BBX 9 13 2 0
BITMAP
3600
1C00
0000
C380
C780
C780
CF80
DD80
DD80
F980
F180
F180
E180
ENDCHAR
STARTCHAR afii10076
ENCODING 1082
SWIDTH 722 0
DWIDTH 13 0
BBX 10 10 2 0
BITMAP
E180
E380
E700
EE00
FC00
FE00
EF00
E780
E3C0
E1C0
ENDCHAR
STARTCHAR afii10077
ENCODING 1083
SWIDTH 722 0
DWIDTH 13 0
BBX 10 10 1 0
BITMAP
3FC0
3FC0
39C0
39C0
39C0
39C0
39C0
71C0
F1C0
E1C0
ENDCHAR
STARTCHAR afii10078
ENCODING 1084
SWIDTH 888 0
DWIDTH 16 0
BBX 12 10 2 0
BITMAP
E070
F0F0
F0F0
F9F0
F970
DF70
DF70
CE70
CE70
C070
ENDCHAR
STARTCHAR afii10079
ENCODING 1085
SWIDTH 722 0
DWIDTH 13 0
BBX 9 10 2 0
BITMAP
E380
E380
E380
E380
FF80
FF80
E380
E380
E380
E380
ENDCHAR
STARTCHAR afii10080
ENCODING 1086
SWIDTH 722 0
DWIDTH 13 0
BBX 11 10 1 0
BITMAP
1F00
7FC0
71C0
E0E0
E0E0
E0E0
E0E0
71C0
7FC0
1F00
ENDCHAR
STARTCHAR afii10081
ENCODING 1087
SWIDTH 722 0
DWIDTH 13 0
BBX 9 10 2 0
BITMAP
FF80
FF80
E380
E380
E380
E380
E380
E380
E380
E380
ENDCHAR
STARTCHAR afii10082
ENCODING 1088
SWIDTH 722 0
DWIDTH 13 0
BBX 10 13 2 -3
BITMAP
CF00
FF80
F3C0
E1C0
E1C0
E1C0
E1C0
E380
FF80
EE00
E000
E000
E000
ENDCHAR
STARTCHAR afii10083
ENCODING 1089
SWIDTH 611 0
DWIDTH 11 0
BBX 9 10 1 0
BITMAP
1F00
7F80
7180
E000
E000
E000
E000
F180
7F80
1E00
ENDCHAR
STARTCHAR afii10084
ENCODING 1090
SWIDTH 555 0
DWIDTH 10 0
BBX 9 10 1 0
BITMAP
FF80
FF80
1C00
1C00
1C00
1C00
1C00
1C00
1C00
1C00
ENDCHAR
STARTCHAR afii10085
ENCODING 1091
SWIDTH 666 0
DWIDTH 12 0
BBX 10 13 1 -3
BITMAP
E0C0
E0C0
E1C0
7180
7380
3B00
3F00
1E00
1E00
0C00
1C00
3800
3800
ENDCHAR
STARTCHAR afii10086
ENCODING 1092
SWIDTH 944 0
DWIDTH 17 0
BBX 15 17 1 -3
BITMAP
0380
0380
0380
0380
3BB8
7FFC
F39E
E38E
E38E
E38E
E38E
739C
7FFC
1BB0
0380
0380
0380
ENDCHAR
STARTCHAR afii10087
ENCODING 1093
SWIDTH 611 0
DWIDTH 11 0
BBX 9 10 1 0
BITMAP
E180
E380
7300
7600
3C00
3E00
7700
6700
E380
C380
ENDCHAR
STARTCHAR afii10088
ENCODING 1094
SWIDTH 722 0
DWIDTH 13 0
BBX 10 12 2 -2
BITMAP
E380
E380
E380
E380
E380
E380
E380
E380
FFC0
FFC0
01C0
01C0
ENDCHAR
STARTCHAR afii10089
ENCODING 1095
SWIDTH 666 0
DWIDTH 12 0
BBX 9 10 1 0
BITMAP
E380
E380
E380
E380
E780
FF80
7B80
0380
0380
0380
ENDCHAR
STARTCHAR afii10090
ENCODING 1096
SWIDTH 1055 0
DWIDTH 19 0
BBX 15 10 2 0
BITMAP
E38E
E38E
E38E
E38E
E38E
E38E
E38E
E38E
FFFE
FFFE
ENDCHAR
STARTCHAR afii10091
ENCODING 1097
SWIDTH 1055 0
DWIDTH 19 0
BBX 16 12 2 -2
BITMAP
E38E
E38E
E38E
E38E
E38E
E38E
E38E
E38E
FFFF
FFFF
0007
0007
ENDCHAR
STARTCHAR afii10092
ENCODING 1098
SWIDTH 722 0
DWIDTH 13 0
BBX 11 10 1 0
BITMAP
F800
F800
3800
3800
3F80
3FC0
38E0
38E0
3FE0
3FC0
ENDCHAR
STARTCHAR afii10093
ENCODING 1099
SWIDTH 1000 0
DWIDTH 18 0
BBX 14 10 2 0
BITMAP
E01C
E01C
E01C
E01C
FE1C
FF1C
E39C
E39C
FF9C
FF1C
ENDCHAR
STARTCHAR afii10094
ENCODING 1100
SWIDTH 666 0
DWIDTH 12 0
BBX 9 10 2 0
BITMAP
E000
E000
E000
E000
FE00
FF00
E380
E380
FF80
FF00
ENDCHAR
STARTCHAR afii10095
ENCODING 1101
SWIDTH 611 0
DWIDTH 11 0
BBX 9 10 1 0
BITMAP
7C00
FF00
C700
0380
3F80
3F80
0380
C780
FF00
3C00
ENDCHAR
STARTCHAR afii10096
ENCODING 1102
SWIDTH 1055 0
DWIDTH 19 0
BBX 16 10 2 0
BITMAP
E0F8
E3FE
E38E
E707
FF07
FF07
E707
E38E
E3FE
E0F8
ENDCHAR
STARTCHAR afii10097
ENCODING 1103
SWIDTH 722 0
DWIDTH 13 0
BBX 10 10 1 0
BITMAP
3FC0
7FC0
71C0
71C0
3FC0
1FC0
39C0
71C0
F1C0
E1C0
ENDCHAR
STARTCHAR uni0450
ENCODING 1104
SWIDTH 614 0
DWIDTH 11 0
BBX 9 13 1 0
BITMAP
3C00
0E00
0000
1E00
7F00
7380
E380
FF80
FF80
E000
F180
7F80
1F00
ENDCHAR
STARTCHAR afii10071
ENCODING 1105
SWIDTH 614 0
DWIDTH 11 0
BBX 9 13 1 0
BITMAP
3300
3300
0000
1E00
7F00
7380
E380
FF80
FF80
E000
F180
7F80
1F00
ENDCHAR
STARTCHAR afii10099
ENCODING 1106
SWIDTH 722 0
DWIDTH 13 0
BBX 10 17 1 -3
BITMAP
7000
FF00
FF00
7000
7780
7FC0
79C0
71C0
71C0
71C0
71C0
71C0
71C0
71C0
0380
0780
0600
ENDCHAR
STARTCHAR afii10100
ENCODING 1107
SWIDTH 555 0
DWIDTH 10 0
BBX 8 13 2 0
BITMAP
1E
38
00
FF
FF
E0
E0
E0
E0
E0
E0
E0
E0
ENDCHAR
STARTCHAR afii10101
ENCODING 1108
SWIDTH 611 0
DWIDTH 11 0
BBX 9 10 1 0
BITMAP
1F00
7F80
7180
E000
FE00
FE00
E000
F180
7F80
1E00
ENDCHAR
STARTCHAR afii10102
ENCODING 1109
SWIDTH 622 0
DWIDTH 11 0
BBX 9 10 1 0
BITMAP
3F00
7F80
E180
F000
7C00
1F00
0780
C380
FF00
7E00
ENDCHAR
STARTCHAR afii10103
ENCODING 1110
SWIDTH 361 0
DWIDTH 7 0
BBX 3 14 2 0
BITMAP
E0
E0
00
00
E0
E0
E0
E0
E0
E0
E0
E0
E0
E0
ENDCHAR
STARTCHAR afii10104
ENCODING 1111
SWIDTH 361 0
DWIDTH 7 0
BBX 6 13 0 0
BITMAP
CC
CC
00
38
38
38
38
38
38
38
38
38
38
ENDCHAR
STARTCHAR afii10105
ENCODING 1112
SWIDTH 361 0
DWIDTH 7 0
BBX 5 17 0 -3
BITMAP
38
38
00
00
38
38
38
38
38
38
38
38
38
38
30
F0
C0
ENDCHAR
STARTCHAR afii10106
ENCODING 1113
SWIDTH 1000 0
DWIDTH 18 0
BBX 16 10 1 0
BITMAP
3FC0
3FC0
39C0
39C0
39FC
39FE
39C7
71C7
F1FF
E1FE
ENDCHAR
STARTCHAR afii10107
ENCODING 1114
SWIDTH 1000 0
DWIDTH 18 0
BBX 15 10 2 0
BITMAP
E380
E380
E380
E380
FFF8
FFFC
E38E
E38E
E3FE
E3FC
ENDCHAR
STARTCHAR afii10108
ENCODING 1115
SWIDTH 722 0
DWIDTH 13 0
BBX 10 14 1 0
BITMAP
7000
FF00
FF00
7000
7780
7FC0
79C0
71C0
71C0
71C0
71C0
71C0
71C0
71C0
ENDCHAR
STARTCHAR afii10109
ENCODING 1116
SWIDTH 722 0
DWIDTH 13 0
BBX 10 13 2 0
BITMAP
0F00
1C00
0000
E180
E380
E700
EE00
FC00
FE00
EF00
E780
E3C0
E1C0
ENDCHAR
STARTCHAR afii10110
ENCODING 1118
SWIDTH 666 0
DWIDTH 12 0
BBX 10 16 1 -3
BITMAP
3180
1F00
0400
E0C0
E0C0
E1C0
7180
7380
3B00
3F00
1E00
1E00
0C00
1C00
3800
3800
ENDCHAR
STARTCHAR afii10193
ENCODING 1119
SWIDTH 722 0
DWIDTH 13 0
BBX 9 12 2 -2
BITMAP
E380
E380
E380
E380
E380
E380
E380
E380
FF80
FF80
1C00
1C00
ENDCHAR
STARTCHAR afii10146
ENCODING 1122
SWIDTH 777 0
DWIDTH 14 0
BBX 12 13 1 0
BITMAP
3800
FE00
FE00
3800
3800
3F80
3FE0
38E0
3870
3870
38F0
3FE0
3F80
ENDCHAR
STARTCHAR afii10194
ENCODING 1123
SWIDTH 722 0
DWIDTH 13 0
BBX 11 14 1 0
BITMAP
3800
3800
3800
3800
FE00
FE00
3800
3800
3F80
3FC0
38E0
38E0
3FE0
3FC0
ENDCHAR
STARTCHAR afii10147
ENCODING 1138
SWIDTH 888 0
DWIDTH 16 0
BBX 14 13 1 0
BITMAP
0FC0
3FF0
7878
7038
E01C
FFFC
FFFC
E01C
E01C
7038
7878
3FF0
0FC0
ENDCHAR
STARTCHAR afii10195
ENCODING 1139
SWIDTH 722 0
DWIDTH 13 0
BBX 11 10 1 0
BITMAP
1F00
7FC0
71C0
E0E0
FFE0
FFE0
E0E0
71C0
7FC0
1F00
ENDCHAR
STARTCHAR afii10148
ENCODING 1140
SWIDTH 777 0
DWIDTH 14 0
BBX 13 13 1 0
BITMAP
E018
E038
7070
7060
7060
38C0
38C0
1CC0
1D80
0F80
0F80
0700
0700
ENDCHAR
STARTCHAR afii10196
ENCODING 1141
SWIDTH 666 0
DWIDTH 12 0
BBX 10 10 1 0
BITMAP
E0C0
E1C0
E180
F380
7300
7B00
3E00
3E00
1C00
1C00
ENDCHAR
STARTCHAR afii10050
ENCODING 1168
SWIDTH 611 0
DWIDTH 11 0
BBX 9 16 2 0
BITMAP
0380
0380
0380
FF80
FF80
E000
E000
E000
E000
E000
E000
E000
E000
E000
E000
E000
ENDCHAR
STARTCHAR afii10098
ENCODING 1169
SWIDTH 555 0
DWIDTH 10 0
BBX 8 12 2 0
BITMAP
07
07
FF
FF
E0
E0
E0
E0
E0
E0
E0
E0
ENDCHAR
STARTCHAR uni04AA
ENCODING 1194
SWIDTH 726 0
DWIDTH 14 0
BBX 12 16 1 -3
BITMAP
0FE0
3FF0
7830
7000
E000
E000
E000
E000
F000
7000
7C30
3FF0
0FC0
0700
0380
0F00
ENDCHAR
STARTCHAR uni04AB
ENCODING 1195
SWIDTH 545 0
DWIDTH 11 0
BBX 9 13 1 -3
BITMAP
1F00
7F80
7180
E000
E000
E000
E000
F180
7F80
1E00
0C00
0600
1C00
ENDCHAR
STARTCHAR uni04AE
ENCODING 1198
SWIDTH 738 0
DWIDTH 13 0
BBX 11 13 1 0
BITMAP
E0E0
E0E0
70C0
71C0
3980
3980
1F00
0E00
0E00
0E00
0E00
0E00
0E00
ENDCHAR
STARTCHAR uni04C0
ENCODING 1216
SWIDTH 361 0
DWIDTH 7 0
BBX 3 13 2 0
BITMAP
E0
E0
E0
E0
E0
E0
E0
E0
E0
E0
E0
E0
E0
ENDCHAR
STARTCHAR uni04D2
ENCODING 1234
SWIDTH 773 0
DWIDTH 14 0
BBX 13 16 1 0
BITMAP
1980
1980
0000
0700
0700
0F80
0F80
19C0
19C0
30E0
3FE0
7FF0
7070
6070
E038
E038
ENDCHAR
STARTCHAR uni04D3
ENCODING 1235
SWIDTH 623 0
DWIDTH 12 0
BBX 10 13 1 0
BITMAP
3300
3300
0000
3E00
7F00
6380
0380
1F80
7F80
E380
E380
FFC0
79C0
ENDCHAR
STARTCHAR uni04D4
ENCODING 1236
SWIDTH 997 0
DWIDTH 18 0
BBX 16 13 1 0
BITMAP
03FF
03FF
06E0
0CE0
0CE0
18FE
38FE
3FE0
7FE0
60E0
E0E0
E0FF
E0FF
ENDCHAR
STARTCHAR uni04D5
ENCODING 1237
SWIDTH 913 0
DWIDTH 17 0
BBX 15 10 1 0
BITMAP
3E78
7FFC
63CE
038E
1FFE
7FFE
E380
E3C6
FFFE
7C7C
ENDCHAR
STARTCHAR uni04E6
ENCODING 1254
SWIDTH 855 0
DWIDTH 16 0
BBX 14 16 1 0
BITMAP
0CC0
0CC0
0000
0FC0
3FF0
7878
7038
E01C
E01C
E01C
E01C
E01C
7038
7878
3FF0
0FC0
ENDCHAR
STARTCHAR uni04E7
ENCODING 1255
SWIDTH 675 0
DWIDTH 13 0
BBX 11 13 1 0
BITMAP
1980
1980
0000
1F00
7FC0
71C0
E0E0
E0E0
E0E0
E0E0
71C0
7FC0
1F00
ENDCHAR
STARTCHAR uni04E8
ENCODING 1256
SWIDTH 888 0
DWIDTH 16 0
BBX 14 13 1 0
BITMAP
0FC0
3FF0
7878
7038
E01C
FFFC
FFFC
E01C
E01C
7038
7878
3FF0
0FC0
ENDCHAR
STARTCHAR uni04E9
ENCODING 1257
SWIDTH 722 0
DWIDTH 13 0
BBX 11 10 1 0
BITMAP
1F00
7FC0
71C0
E0E0
FFE0
FFE0
E0E0
71C0
7FC0
1F00
ENDCHAR
ENDFONT
